<mxfile host="app.diagrams.net" modified="2024-04-23T00:30:20.291Z" agent="Mozilla/5.0 (Windows NT 10.0; Win64; x64) AppleWebKit/537.36 (KHTML, like Gecko) Chrome/123.0.0.0 Safari/537.36" version="24.2.8" etag="3SpKDqaGfPmaA3mPe6WH" type="device">
  <diagram id="fxq8hR0ZbnoxlboQnMFl" name="Página-1">
    <mxGraphModel dx="838" dy="906" grid="1" gridSize="10" guides="1" tooltips="1" connect="1" arrows="1" fold="1" page="1" pageScale="1" pageWidth="827" pageHeight="1169" math="0" shadow="0">
      <root>
        <mxCell id="0" />
        <mxCell id="1" parent="0" />
        <mxCell id="DNFvch2I2mW5e_N4Om_m-2" value="" style="rounded=0;whiteSpace=wrap;html=1;" vertex="1" parent="1">
          <mxGeometry x="84" y="30" width="666" height="1020" as="geometry" />
        </mxCell>
        <mxCell id="DNFvch2I2mW5e_N4Om_m-3" value="&lt;font style=&quot;vertical-align: inherit;&quot;&gt;&lt;font style=&quot;vertical-align: inherit;&quot;&gt;&lt;font style=&quot;vertical-align: inherit;&quot;&gt;&lt;font style=&quot;vertical-align: inherit; font-size: 36px;&quot;&gt;cabeçalho&lt;/font&gt;&lt;/font&gt;&lt;/font&gt;&lt;/font&gt;" style="rounded=0;whiteSpace=wrap;html=1;" vertex="1" parent="1">
          <mxGeometry x="90" y="40" width="650" height="170" as="geometry" />
        </mxCell>
        <mxCell id="DNFvch2I2mW5e_N4Om_m-4" value="&lt;font style=&quot;vertical-align: inherit;&quot;&gt;&lt;font style=&quot;vertical-align: inherit;&quot;&gt;&lt;font style=&quot;vertical-align: inherit;&quot;&gt;&lt;font style=&quot;vertical-align: inherit; font-size: 36px;&quot;&gt;navegação&lt;/font&gt;&lt;/font&gt;&lt;/font&gt;&lt;/font&gt;" style="rounded=0;whiteSpace=wrap;html=1;" vertex="1" parent="1">
          <mxGeometry x="92" y="220" width="650" height="60" as="geometry" />
        </mxCell>
        <mxCell id="DNFvch2I2mW5e_N4Om_m-5" value="&lt;font style=&quot;font-size: 24px;&quot;&gt;section&lt;/font&gt;" style="whiteSpace=wrap;html=1;aspect=fixed;" vertex="1" parent="1">
          <mxGeometry x="90" y="310" width="320" height="320" as="geometry" />
        </mxCell>
        <mxCell id="DNFvch2I2mW5e_N4Om_m-6" value="&lt;span style=&quot;font-size: 24px;&quot;&gt;section&lt;/span&gt;" style="whiteSpace=wrap;html=1;aspect=fixed;" vertex="1" parent="1">
          <mxGeometry x="422" y="310" width="320" height="320" as="geometry" />
        </mxCell>
        <mxCell id="DNFvch2I2mW5e_N4Om_m-7" value="&lt;font style=&quot;font-size: 24px;&quot;&gt;footer&lt;/font&gt;" style="rounded=0;whiteSpace=wrap;html=1;" vertex="1" parent="1">
          <mxGeometry x="90" y="880" width="650" height="160" as="geometry" />
        </mxCell>
        <mxCell id="DNFvch2I2mW5e_N4Om_m-8" value="&lt;font style=&quot;font-size: 24px;&quot;&gt;section(table)&lt;/font&gt;" style="rounded=0;whiteSpace=wrap;html=1;" vertex="1" parent="1">
          <mxGeometry x="90" y="640" width="652" height="220" as="geometry" />
        </mxCell>
        <mxCell id="DNFvch2I2mW5e_N4Om_m-10" value="&lt;font style=&quot;font-size: 18px;&quot;&gt;img&lt;/font&gt;" style="whiteSpace=wrap;html=1;aspect=fixed;" vertex="1" parent="1">
          <mxGeometry x="230" y="55" width="140" height="140" as="geometry" />
        </mxCell>
      </root>
    </mxGraphModel>
  </diagram>
</mxfile>
